<?xml version="1.0" encoding="utf-8"?>
<!-- Generator: Adobe Illustrator 19.0.0, SVG Export Plug-In . SVG Version: 6.00 Build 0)  -->
<svg version="1.1" id="Layer_1" xmlns="http://www.w3.org/2000/svg" xmlns:xlink="http://www.w3.org/1999/xlink" x="0px" y="0px"
	 viewBox="-437 239 84 84" style="enable-background:new -437 239 84 84;" xml:space="preserve">
<style type="text/css">
	.st0{fill:#2F00FF;}
	.st1{fill:none;stroke:#000000;stroke-width:2;stroke-linecap:square;}
	.st2{fill:#E90D00;}
	.st3{font-family:'MyriadPro-Regular';}
	.st4{font-size:7px;}
</style>
<rect x="-376" y="264.3" class="st0" width="10.6" height="1.3"/>
<rect x="-391.8" y="248.3" class="st0" width="10.6" height="1.3"/>
<rect x="-424.6" y="295.1" class="st0" width="10.6" height="1.3"/>
<rect x="-424" y="248.3" class="st0" width="9.2" height="1.3"/>
<rect x="-408.4" y="248.3" class="st0" width="10.6" height="1.3"/>
<rect x="-424" y="264.3" class="st0" width="9.2" height="1.3"/>
<rect x="-408.6" y="280.3" class="st0" width="11.1" height="1.3"/>
<rect x="-424" y="312.3" class="st0" width="10.6" height="1.3"/>
<rect x="-409" y="295.1" class="st0" width="11.7" height="1.3"/>
<rect x="-391.8" y="295.1" class="st0" width="10.6" height="1.3"/>
<rect x="-391.8" y="312.3" class="st0" width="10.6" height="1.3"/>
<rect x="-379.4" y="298.6" class="st0" width="1.3" height="11.4"/>
<rect x="-364" y="298.6" class="st0" width="1.3" height="11.7"/>
<rect x="-364" y="282.2" class="st0" width="1.3" height="11.4"/>
<rect x="-364" y="267" class="st0" width="1.3" height="11.4"/>
<rect x="-364" y="251.3" class="st0" width="1.3" height="11.4"/>
<rect x="-379.4" y="251" class="st0" width="1.3" height="11.4"/>
<rect x="-395.4" y="267" class="st0" width="1.3" height="11.4"/>
<rect x="-395.4" y="251.3" class="st0" width="1.3" height="11.4"/>
<rect x="-412.3" y="267.5" class="st0" width="1.3" height="11.4"/>
<rect x="-427.6" y="282.2" class="st0" width="1.3" height="11.4"/>
<rect x="-427.6" y="266.6" class="st0" width="1.3" height="11.8"/>
<rect x="-376.4" y="280.3" class="st0" width="10.6" height="1.3"/>
<rect x="-427.6" y="298.3" class="st0" width="1.3" height="12.1"/>
<title>5 by 5 orthogonal maze</title>
<desc>5 by 5 orthogonal maze generated by The Maze Generator Website (http://www.mazegenerator.net/).</desc>
<g>
	<line class="st1" x1="-434.7" y1="241" x2="-402.7" y2="241"/>
	<line class="st1" x1="-386.7" y1="241" x2="-354.7" y2="241"/>
	<line class="st1" x1="-434.7" y1="257" x2="-402.7" y2="257"/>
	<line class="st1" x1="-386.7" y1="273" x2="-370.7" y2="273"/>
	<line class="st1" x1="-418.7" y1="289" x2="-370.7" y2="289"/>
	<line class="st1" x1="-418.7" y1="305" x2="-386.7" y2="305"/>
	<line class="st1" x1="-434.7" y1="321" x2="-402.7" y2="321"/>
	<line class="st1" x1="-386.7" y1="321" x2="-354.7" y2="321"/>
	<line class="st1" x1="-434.7" y1="241" x2="-434.7" y2="321"/>
	<line class="st1" x1="-418.7" y1="273" x2="-418.7" y2="289"/>
	<line class="st1" x1="-402.7" y1="257" x2="-402.7" y2="273"/>
	<line class="st1" x1="-402.7" y1="305" x2="-402.7" y2="321"/>
	<line class="st1" x1="-386.7" y1="257" x2="-386.7" y2="289"/>
	<line class="st1" x1="-370.7" y1="241" x2="-370.7" y2="257"/>
	<line class="st1" x1="-370.7" y1="289" x2="-370.7" y2="321"/>
	<line class="st1" x1="-354.7" y1="241" x2="-354.7" y2="321"/>
</g>
<circle class="st2" cx="-394.7" cy="249" r="3.2"/>
<circle class="st2" cx="-378.7" cy="249" r="3.2"/>
<circle class="st2" cx="-378.7" cy="265" r="3.2"/>
<circle class="st2" cx="-363.3" cy="265" r="3.2"/>
<circle class="st2" cx="-394.7" cy="265" r="3.2"/>
<circle class="st2" cx="-394.7" cy="281" r="3.2"/>
<circle class="st2" cx="-411.6" cy="281" r="3.2"/>
<circle class="st2" cx="-411.6" cy="265" r="3.2"/>
<circle class="st2" cx="-426.9" cy="265" r="3.2"/>
<circle class="st2" cx="-426.9" cy="281" r="3.2"/>
<circle class="st2" cx="-426.9" cy="295.8" r="3.2"/>
<circle class="st2" cx="-411.6" cy="295.8" r="3.2"/>
<circle class="st2" cx="-394.7" cy="295.8" r="3.2"/>
<circle class="st2" cx="-411.6" cy="249" r="3.2"/>
<circle class="st2" cx="-426.9" cy="249" r="3.2"/>
<circle class="st2" cx="-378.7" cy="295.8" r="3.2"/>
<circle class="st2" cx="-426.9" cy="313" r="3.2"/>
<circle class="st2" cx="-411.6" cy="313" r="3.2"/>
<circle class="st2" cx="-378.7" cy="313" r="3.2"/>
<circle class="st2" cx="-394.7" cy="313" r="3.2"/>
<circle class="st2" cx="-378.7" cy="281" r="3.2"/>
<circle class="st2" cx="-363.3" cy="281" r="3.2"/>
<circle class="st2" cx="-363.3" cy="249" r="3.2"/>
<circle class="st2" cx="-363.3" cy="295.8" r="3.2"/>
<circle class="st2" cx="-363.3" cy="313" r="3.2"/>
<text transform="matrix(1 0 0 1 -396.825 251.125)" class="st3 st4">A</text>
<text transform="matrix(1 0 0 1 -396.4188 315.25)" class="st3 st4">B</text>
</svg>
